<svg width="38" height="41" viewBox="0 0 38 41" fill="none" xmlns="http://www.w3.org/2000/svg">
<path d="M0.820679 35.825V15.1148C0.820679 14.3861 0.984058 13.6958 1.31082 13.0438C1.63758 12.3918 2.08783 11.8549 2.66158 11.433L16.4683 1.07792C17.2737 0.464288 18.1942 0.157471 19.2297 0.157471C20.2652 0.157471 21.1857 0.464288 21.9911 1.07792L35.7978 11.433C36.3731 11.8549 36.8241 12.3918 37.1509 13.0438C37.4776 13.6958 37.6403 14.3861 37.6387 15.1148V35.825C37.6387 37.0906 37.1877 38.1744 36.2857 39.0764C35.3836 39.9785 34.3006 40.4287 33.0365 40.4272H26.1331C25.4811 40.4272 24.935 40.2063 24.4947 39.7645C24.0544 39.3227 23.8335 38.7765 23.832 38.1261V26.6204C23.832 25.9685 23.611 25.4223 23.1692 24.982C22.7274 24.5418 22.1813 24.3208 21.5308 24.3193H16.9286C16.2766 24.3193 15.7305 24.5402 15.2902 24.982C14.8499 25.4239 14.629 25.97 14.6274 26.6204V38.1261C14.6274 38.7781 14.4065 39.325 13.9647 39.7668C13.5229 40.2086 12.9768 40.4287 12.3263 40.4272H5.42293C4.15731 40.4272 3.07425 39.977 2.17374 39.0764C1.27323 38.1759 0.822213 37.0921 0.820679 35.825Z" fill="#F66600"/>
</svg>
