<svg width="52" height="52" viewBox="0 0 52 52" fill="none" xmlns="http://www.w3.org/2000/svg">
<path d="M41.36 13.2774C41.9436 13.0612 42.6405 12.8786 43.3963 13.015C44.3242 13.183 45.1513 13.7057 45.7055 14.4677C46.1568 15.0891 46.2933 15.7986 46.3521 16.42C46.4087 17.0225 46.4087 17.7762 46.4087 18.6348V18.8657C46.4087 19.4955 46.4129 20.1672 46.1862 20.7865C46.0077 21.2759 45.7272 21.7217 45.3633 22.0944C44.9015 22.5667 44.2948 22.8564 43.7259 23.1272L43.5831 23.1965L39.8359 24.9956C39.0613 25.3671 38.3832 25.6925 37.8122 25.9025C37.2643 26.1061 36.6156 26.2803 35.9124 26.188V35.1854C35.9124 38.9935 32.8999 42.1571 29.0897 42.1571C25.2795 42.1571 22.2671 38.9935 22.2671 35.1854C22.2671 31.3774 25.2795 28.2117 29.0897 28.2117C30.3948 28.2123 31.6713 28.5931 32.7635 29.3075V21.6892H32.7698C32.7642 21.3337 32.7621 20.9524 32.7635 20.5451V20.3142C32.7635 19.6844 32.7593 19.0126 32.986 18.3934C33.1645 17.904 33.445 17.4582 33.8089 17.0855C34.2707 16.6132 34.8774 16.3235 35.4463 16.0527L35.5891 15.9834L39.3363 14.1843C40.1109 13.8127 40.789 13.4873 41.36 13.2774Z" fill="#F66600"/>
<path fill-rule="evenodd" clip-rule="evenodd" d="M5.4729 11.1929C5.4729 10.7753 5.63878 10.3748 5.93405 10.0796C6.22932 9.78429 6.62978 9.61841 7.04736 9.61841H32.2387C32.6562 9.61841 33.0567 9.78429 33.352 10.0796C33.6472 10.3748 33.8131 10.7753 33.8131 11.1929C33.8131 11.6104 33.6472 12.0109 33.352 12.3062C33.0567 12.6014 32.6562 12.7673 32.2387 12.7673H7.04736C6.62978 12.7673 6.22932 12.6014 5.93405 12.3062C5.63878 12.0109 5.4729 11.6104 5.4729 11.1929ZM5.4729 19.59C5.4729 19.1724 5.63878 18.7719 5.93405 18.4767C6.22932 18.1814 6.62978 18.0155 7.04736 18.0155H28.0401C28.4577 18.0155 28.8581 18.1814 29.1534 18.4767C29.4487 18.7719 29.6146 19.1724 29.6146 19.59C29.6146 20.0075 29.4487 20.408 29.1534 20.7033C28.8581 20.9985 28.4577 21.1644 28.0401 21.1644H7.04736C6.62978 21.1644 6.22932 20.9985 5.93405 20.7033C5.63878 20.408 5.4729 20.0075 5.4729 19.59ZM5.4729 27.9871C5.4729 27.5695 5.63878 27.169 5.93405 26.8738C6.22932 26.5785 6.62978 26.4126 7.04736 26.4126H19.643C20.0606 26.4126 20.461 26.5785 20.7563 26.8738C21.0516 27.169 21.2175 27.5695 21.2175 27.9871C21.2175 28.4046 21.0516 28.8051 20.7563 29.1004C20.461 29.3956 20.0606 29.5615 19.643 29.5615H7.04736C6.62978 29.5615 6.22932 29.3956 5.93405 29.1004C5.63878 28.8051 5.4729 28.4046 5.4729 27.9871ZM5.4729 36.3842C5.4729 35.9666 5.63878 35.5661 5.93405 35.2708C6.22932 34.9756 6.62978 34.8097 7.04736 34.8097H17.5437C17.9613 34.8097 18.3618 34.9756 18.657 35.2708C18.9523 35.5661 19.1182 35.9666 19.1182 36.3842C19.1182 36.8017 18.9523 37.2022 18.657 37.4975C18.3618 37.7927 17.9613 37.9586 17.5437 37.9586H7.04736C6.62978 37.9586 6.22932 37.7927 5.93405 37.4975C5.63878 37.2022 5.4729 36.8017 5.4729 36.3842Z" fill="#F66600"/>
</svg>
