<svg width="51" height="52" viewBox="0 0 51 52" fill="none" xmlns="http://www.w3.org/2000/svg">
<path d="M20.2704 34.2849C16.4567 34.2849 13.2294 32.9637 10.5886 30.3215C7.94767 27.6792 6.62652 24.4519 6.62512 20.6396C6.62372 16.8273 7.94487 13.6 10.5886 10.9578C13.2322 8.31547 16.4595 6.99432 20.2704 6.99432C24.0813 6.99432 27.3093 8.31547 29.9544 10.9578C32.5994 13.6 33.9199 16.8273 33.9157 20.6396C33.9157 22.1791 33.6708 23.6311 33.1809 24.9956C32.6911 26.3601 32.0263 27.5672 31.1866 28.6168L42.9426 40.3728C43.3274 40.7577 43.5199 41.2475 43.5199 41.8423C43.5199 42.4371 43.3274 42.9269 42.9426 43.3118C42.5577 43.6966 42.0679 43.8891 41.4731 43.8891C40.8783 43.8891 40.3885 43.6966 40.0036 43.3118L28.2477 31.5558C27.198 32.3955 25.9909 33.0603 24.6264 33.5501C23.2619 34.04 21.8099 34.2849 20.2704 34.2849ZM20.2704 30.0863C22.8945 30.0863 25.1253 29.1683 26.9629 27.3321C28.8005 25.4959 29.7185 23.2651 29.7171 20.6396C29.7157 18.0141 28.7977 15.784 26.9629 13.9492C25.1281 12.1145 22.8973 11.1957 20.2704 11.1929C17.6435 11.1901 15.4134 12.1089 13.58 13.9492C11.7467 15.7896 10.8279 18.0197 10.8237 20.6396C10.8195 23.2595 11.7383 25.4903 13.58 27.3321C15.4218 29.1739 17.6519 30.0919 20.2704 30.0863Z" fill="#F66600"/>
</svg>
